<svg width="20" height="20" viewBox="0 0 20 20" fill="none" xmlns="http://www.w3.org/2000/svg">
<g clip-path="url(#clip0_23854_49845)">
<path d="M7.76794 7.96484L7.42416 8.59453C7.1615 9.07563 7.24531 9.67204 7.63039 10.0621C8.04471 10.4818 8.10673 11.135 7.7788 11.6252L7.50291 12.0375" stroke="#0C63E2" stroke-linecap="round"/>
<path d="M12.4405 7.96484L12.0968 8.59453C11.8341 9.07563 11.9179 9.67204 12.303 10.0621C12.7173 10.4818 12.7793 11.135 12.4514 11.6252L12.1755 12.0375" stroke="#0C63E2" stroke-linecap="round"/>
<path d="M10.1042 7.96484L9.76046 8.59453C9.49781 9.07563 9.58162 9.67204 9.9667 10.0621C10.381 10.4818 10.443 11.135 10.1151 11.6252L9.83922 12.0375" stroke="#0C63E2" stroke-linecap="round"/>
<path fill-rule="evenodd" clip-rule="evenodd" d="M5.42816 7.53378C5.46181 7.51094 5.50801 7.5332 5.51117 7.57382L5.6391 9.22226C5.64227 9.26297 5.59977 9.29163 5.56293 9.27402L5.31781 9.15683C4.99837 10.952 5.73072 12.8484 7.3393 13.9322C9.51536 15.3981 12.4678 14.823 13.934 12.6471L14.7631 13.2057C12.9883 15.8396 9.4148 16.5358 6.7807 14.7613C4.7517 13.3943 3.87321 10.961 4.38617 8.71152L4.07172 8.56113C4.03494 8.54355 4.03042 8.49248 4.06391 8.46933L5.42816 7.53378ZM5.24652 6.7916C7.02138 4.15786 10.5949 3.46145 13.2289 5.23593C15.2662 6.60855 16.142 9.05603 15.6157 11.3131L15.9233 11.4605C15.96 11.4782 15.9637 11.5293 15.9301 11.5523L14.5668 12.4879C14.5332 12.511 14.487 12.4886 14.4838 12.4478L14.3549 10.7994C14.3518 10.7587 14.3943 10.73 14.4311 10.7477L14.686 10.8687C15.0182 9.06524 14.2873 7.15451 12.6704 6.06503C10.4944 4.59916 7.5419 5.17449 6.07562 7.35019L5.24652 6.7916Z" fill="#0C63E2"/>
<circle cx="10" cy="10" r="9" stroke="#0C63E2" stroke-width="2"/>
</g>
<defs>
<clipPath id="clip0_23854_49845">
<rect width="20" height="20" fill="white"/>
</clipPath>
</defs>
</svg>
