<svg width="20" height="20" viewBox="0 0 20 20" fill="none" xmlns="http://www.w3.org/2000/svg">
<g clip-path="url(#clip0_23854_49830)">
<path d="M7.3956 7.59375L6.98949 8.33761C6.67921 8.90594 6.77822 9.61048 7.23312 10.0713C7.72256 10.5671 7.79582 11.3387 7.40844 11.9177L7.08253 12.4049" stroke="#0C63E2" stroke-linecap="round"/>
<path d="M12.9168 7.59375L12.5107 8.33761C12.2005 8.90594 12.2995 9.61048 12.7544 10.0713C13.2438 10.5671 13.3171 11.3387 12.9297 11.9177L12.6038 12.4049" stroke="#0C63E2" stroke-linecap="round"/>
<path d="M10.1599 7.59375L9.75377 8.33761C9.44349 8.90594 9.5425 9.61048 9.9974 10.0713C10.4868 10.5671 10.5601 11.3387 10.1727 11.9177L9.84681 12.4049" stroke="#0C63E2" stroke-linecap="round"/>
<path fill-rule="evenodd" clip-rule="evenodd" d="M2.33496 5.85632C2.39145 5.81763 2.46908 5.85454 2.47461 5.92273L2.68945 8.69324C2.69478 8.76163 2.6244 8.81069 2.5625 8.78113L2.28906 8.65027C1.77904 11.5958 2.99002 14.701 5.62793 16.4784C9.21156 18.8928 14.0739 17.9448 16.4883 14.3612L18.1475 15.4794C15.1159 19.9788 9.01035 21.1688 4.51074 18.1376C1.03205 15.7938 -0.466316 11.6145 0.430665 7.76062L0.0556655 7.58191C-0.00621428 7.55231 -0.0126253 7.4674 0.0439467 7.42859L2.33496 5.85632ZM1.88867 4.52332C4.92029 0.0236617 11.0257 -1.16648 15.5254 1.86511C19.0153 4.21668 20.5104 8.41489 19.5947 12.2792L19.957 12.453C20.0189 12.4826 20.0261 12.5684 19.9697 12.6073L17.6777 14.1796C17.6212 14.218 17.5444 14.1805 17.5391 14.1122L17.3232 11.3427C17.3179 11.2743 17.3883 11.2254 17.4502 11.2548L17.7383 11.3925C18.2666 8.43484 17.0573 5.30887 14.4072 3.52332C10.8236 1.10919 5.96123 2.05702 3.54688 5.6405L1.88867 4.52332Z" fill="#0C63E2"/>
</g>
<defs>
<clipPath id="clip0_23854_49830">
<rect width="20" height="20" fill="white"/>
</clipPath>
</defs>
</svg>
