<svg width="32" height="32" viewBox="0 0 32 32" fill="none" xmlns="http://www.w3.org/2000/svg">
<path d="M27.4539 5.85547C27.8618 5.85547 28.2552 6.00011 28.5642 6.26074L28.6912 6.37988L28.7146 6.40527C29.0194 6.74313 29.1882 7.1827 29.1882 7.6377V21.5322C29.188 22.3302 28.7138 23.0519 27.9812 23.3682L23.3708 25.3584C22.5077 25.731 21.6 25.9913 20.6707 26.1328L20.5525 26.1504L20.4343 26.1406L4.35425 24.7549C3.32029 24.6656 2.52612 23.8006 2.52612 22.7627V19.7598C2.5262 18.8838 2.71846 18.0185 3.08862 17.2246L7.23999 8.32031C7.8026 7.11388 8.92342 6.26118 10.2361 6.04004L10.3123 6.02637L10.3904 6.02539L25.2039 5.85547H27.4539ZM10.5037 8.02344C9.86763 8.15156 9.32782 8.5747 9.05249 9.16504L4.90112 18.0693C4.65435 18.5985 4.5262 19.1759 4.52612 19.7598V22.7627L20.4802 24.1357C21.2016 24.0167 21.9063 23.8114 22.5779 23.5215L27.1882 21.5322V7.85547H25.2263L10.5037 8.02344Z" fill="#0C63E2"/>
<path d="M10.3628 11.2795C10.5289 10.9321 10.8798 10.7109 11.2649 10.7109H19.557C20.2594 10.7109 20.7429 11.416 20.4899 12.0712L18.6514 16.832C18.4934 17.2412 18.0871 17.4996 17.6496 17.4694L9.19836 16.8852C8.49403 16.8366 8.06056 16.0931 8.36518 15.4562L10.3628 11.2795Z" stroke="#0C63E2" stroke-width="2" stroke-linejoin="round"/>
<path d="M28.1962 8.10044C28.1962 7.44494 28.1962 6.78944 28.1962 6.13393C27.8269 6.13281 27.4576 6.13173 27.0883 6.13071C26.7413 6.12994 26.3949 6.18436 26.066 6.2899C25.3867 6.50677 24.783 6.94415 24.3654 7.52402C24.0167 8.00701 23.7436 8.54151 23.5578 9.1099C22.8357 11.3183 22.1157 13.5273 21.3977 15.737C21.0834 16.7042 20.7691 17.6715 20.455 18.6388C20.2044 19.4502 19.3514 20.0218 18.5034 19.9448C16.1157 19.7665 13.728 19.5886 11.3404 19.4109C9.60101 19.2814 7.85966 19.1787 6.11775 19.0835C5.52797 19.0857 5.00702 18.4509 5.1565 17.8321C5.18973 17.686 5.22299 17.5398 5.2563 17.3937C5.39253 16.796 5.52955 16.1986 5.66818 15.6015C5.13913 15.4694 4.61008 15.3374 4.08104 15.2053C3.9228 15.7975 3.76295 16.3892 3.60232 16.9808C3.56304 17.1254 3.52371 17.2701 3.48435 17.4147C3.00791 19.006 4.27323 20.8434 5.97823 20.9454C7.71488 21.1108 9.45209 21.2688 11.1913 21.3999C13.5788 21.58 15.9663 21.7599 18.3539 21.9395C20.094 22.0974 21.8407 20.9286 22.3584 19.2594C22.6734 18.2903 22.9878 17.3231 23.3021 16.3558C24.0202 14.1462 24.7362 11.9358 25.4503 9.72487C25.5693 9.35542 25.7485 9.00045 25.9757 8.68303C26.1445 8.44536 26.3945 8.26181 26.673 8.17128C26.8076 8.12714 26.9481 8.10431 27.0883 8.10366C27.4576 8.10264 27.8269 8.10157 28.1962 8.10044Z" fill="#0C63E2"/>
<path d="M18.4031 13.6476C18.4812 13.4409 18.7121 13.3368 18.9187 13.4149L19.1276 13.4939C19.3342 13.5721 19.4384 13.8029 19.3602 14.0096L19.0399 14.8566C18.9618 15.0632 18.7309 15.1674 18.5243 15.0893L18.3154 15.0103C18.1088 14.9321 18.0046 14.7013 18.0828 14.4946L18.4031 13.6476Z" fill="#0C63E2"/>
<path d="M20.968 19.6562L20.968 24.4599" stroke="#0C63E2" stroke-width="2"/>
</svg>
