<svg width="140" height="140" viewBox="0 0 140 140" fill="none" xmlns="http://www.w3.org/2000/svg">
<rect width="140" height="140" rx="20" fill="#171717"/>
<path d="M90.5728 33.8729C84.6131 32.6457 79.7444 33.4086 75.955 36.1392C72.1657 38.8699 69.5591 43.4469 68.1467 49.859L63.7143 69.8692H63.7258L59.7642 87.7458C59.0178 91.1287 57.8925 93.4946 56.3997 94.8544C54.9069 96.2142 52.8285 96.6122 50.176 96.0705C48.4535 95.7167 46.6163 95.0755 44.6412 94.1468L42.4824 103.831C44.3886 104.804 46.7081 105.567 49.4411 106.12C55.4007 107.347 60.2694 106.584 64.0588 103.853C67.8481 101.123 70.4547 96.5459 71.8671 90.1337L76.2995 70.1235H76.2881L80.2496 52.2469C80.996 48.864 82.1214 46.4981 83.6141 45.1383C85.1069 43.7785 87.1853 43.3805 89.8379 43.9222C91.5603 44.276 93.3976 44.9172 95.3726 45.8459L97.5199 36.1503C95.6252 35.1995 93.3057 34.4367 90.5728 33.8729Z" fill="white"/>
</svg>
