<svg width="18" height="18" viewBox="0 0 18 18" fill="none" xmlns="http://www.w3.org/2000/svg">
<g clip-path="url(#clip0_25370_58868)">
<path d="M6.04739 9.00285C6.04739 9.95715 6.22089 10.6416 6.38797 11.0798C6.47151 11.2996 6.55441 11.459 6.61288 11.5599L6.62188 11.5734H9.58108V12.216H6.29479L6.1984 12.0952L6.44902 11.8947C6.22025 12.0778 6.19969 12.0939 6.1984 12.0958L6.19712 12.0945L6.19583 12.0926C6.19583 12.0913 6.19391 12.09 6.19326 12.0888C6.19002 12.0845 6.18681 12.0802 6.18362 12.0759L6.15342 12.0348C6.12007 11.9858 6.08856 11.9357 6.05896 11.8844C5.98185 11.7546 5.88481 11.5631 5.78778 11.3086C5.59307 10.7984 5.40479 10.0362 5.40479 9.00285C5.40479 7.96886 5.59307 7.20734 5.78778 6.6971C5.88417 6.44262 5.98249 6.25111 6.05896 6.1213C6.09687 6.05575 6.12964 6.00563 6.15342 5.97093L6.18362 5.9298L6.19326 5.91695L6.19583 5.91309L6.19712 5.91116H6.19776C6.19969 5.9118 6.22025 5.92787 6.44902 6.11102L6.1984 5.91052L6.29479 5.78971L9.6145 5.78906L9.58108 6.43169L6.62188 6.43233L6.61353 6.44519C6.52504 6.59892 6.44939 6.7597 6.38733 6.92587C6.22025 7.36415 6.04739 8.04855 6.04739 9.00285Z" fill="#009688"/>
<path d="M9.58255 8.9984C9.58255 10.1622 9.82031 11.1846 10.1737 11.8922C10.5465 12.6376 10.9423 12.8542 11.1891 12.8542C11.4358 12.8542 11.8317 12.6376 12.2044 11.8922C12.5578 11.1853 12.7956 10.1622 12.7956 8.9984C12.7956 7.8346 12.5578 6.81218 12.2044 6.10464C11.8317 5.35919 11.4358 5.14263 11.1891 5.14263V4.5C12.4312 4.5 13.4382 6.514 13.4382 8.9984C13.4382 11.4828 12.4312 13.4968 11.1891 13.4968C9.94691 13.4968 8.93994 11.4828 8.93994 8.9984C8.93994 6.514 9.94691 4.5 11.1891 4.5V5.14263C10.9423 5.14263 10.5465 5.35919 10.1737 6.10464C9.81967 6.81154 9.58191 7.8346 9.58191 8.9984H9.58255Z" fill="#009688"/>
<path d="M10.8686 9.00167C10.8686 9.3172 10.9329 9.58774 11.0228 9.76639C11.0678 9.85636 11.1128 9.91099 11.1475 9.9399C11.1594 9.95072 11.1731 9.95941 11.188 9.96561H11.1918L11.1976 9.96368C11.2103 9.95773 11.222 9.94993 11.2323 9.94055C11.2848 9.89137 11.3271 9.83243 11.357 9.76704C11.4469 9.5871 11.5112 9.3172 11.5112 9.00167C11.5112 8.68614 11.4469 8.41559 11.357 8.23694C11.3272 8.17132 11.2848 8.11216 11.2323 8.06279C11.222 8.0534 11.2103 8.0456 11.1976 8.03965L11.1912 8.03772H11.1899V7.71641C11.5446 7.71641 11.8325 8.29156 11.8325 9.00167C11.8325 9.71177 11.5446 10.2869 11.1899 10.2869C10.8352 10.2869 10.5473 9.71177 10.5473 9.00167C10.5473 8.29156 10.8352 7.71641 11.1899 7.71641V8.03772H11.188L11.1822 8.03965C11.1695 8.0456 11.1578 8.0534 11.1475 8.06279C11.095 8.11196 11.0527 8.1709 11.0228 8.2363C10.9329 8.41623 10.8686 8.68614 10.8686 9.00167ZM6.94163 6.00316L6.43911 5.60152L6.63254 5.36053H7.16333C6.9834 5.2063 6.81761 5.14718 6.69102 5.14718V4.50455C7.35676 4.50455 7.88562 4.86828 8.29753 5.78724L6.94163 6.00252V6.00316ZM5.0845 9.00231C5.0845 10.1655 5.32226 11.1879 5.6757 11.8954C6.02528 12.5946 6.39542 12.8292 6.64346 12.8555L6.69102 12.8581C6.81761 12.8581 6.98019 12.8041 7.16526 12.6428H6.62933L6.43654 12.3986C6.34337 12.2791 5.5491 11.2027 5.5491 9.00167C5.5491 7.8912 5.75153 7.06414 5.9668 6.50055C6.05007 6.27796 6.15151 6.06259 6.27011 5.85664C6.31316 5.78274 6.35108 5.72426 6.38064 5.68185C6.39477 5.66064 6.40827 5.64329 6.41791 5.63043L6.43076 5.61308L6.4359 5.60666L6.43911 5.60152C6.44104 5.60216 6.46739 5.62401 6.94163 6.00316C6.94163 6.00316 6.19171 6.94076 6.19171 9.00167C6.19171 11.0362 6.92235 11.9758 6.94163 12.0002H8.36629C7.95502 12.9204 7.3574 13.5007 6.69102 13.5007C5.44886 13.5007 4.44189 11.4861 4.44189 9.00231C4.44189 6.51855 5.44886 4.50455 6.69102 4.50391V5.14654C6.44426 5.14718 6.04841 5.36439 5.6757 6.10984C5.34411 6.77303 5.1147 7.71191 5.08707 8.78574L5.0845 9.00231ZM8.36629 12.0002L8.38171 11.968L8.36757 12.0002H8.36629Z" fill="#009688"/>
<path d="M1.37553 12.0536C1.9809 13.8149 3.20057 15.3739 4.94013 16.3782C8.76647 18.5873 13.6592 17.2763 15.8683 13.45C16.4177 12.4985 16.7493 11.4811 16.8788 10.4554M16.6034 5.8926C15.991 4.15641 14.7795 2.62185 13.0601 1.62916C9.23373 -0.579977 4.34101 0.731015 2.13187 4.55736C1.62177 5.44088 1.29935 6.38127 1.15225 7.33234" stroke="#7B8282" stroke-linecap="round"/>
<path d="M1.61279 10.5664L3.11279 12.5664H0.112793L1.61279 10.5664Z" fill="#7B8282"/>
<path d="M16.3931 7.44531L17.9327 5.44531H14.8535L16.3931 7.44531Z" fill="#7B8282"/>
</g>
<defs>
<clipPath id="clip0_25370_58868">
<rect width="18" height="18" fill="white"/>
</clipPath>
</defs>
</svg>
